# xmcd
#
# Track frame offsets:
#	150
#	23104
#	51715
#	81583
#	102592
#	123387
#	145352
#	164278
#
# Disc length: 2343 seconds
#
# Revision: 1
# Processed by: cddbd v1.5.2PL0 Copyright (c) Steve Scherf et al.
# Submitted via: audiograbber 1.83.01
#
DISCID=76092508
DTITLE=Edwin Birdsong - Edwin Birdsong
DYEAR=1979
DGENRE=Soul
TTITLE0=Cola Bottle Baby
TTITLE1=Phiss-Phizz
TTITLE2=Kunta Dance
TTITLE3=Lollipop
TTITLE4=Goldmine
TTITLE5=Freaky Deaky Sities
TTITLE6=Autumn Eyes
TTITLE7=Lollipop (Slow)
EXTD=
EXTT0=
EXTT1=
EXTT2=
EXTT3=
EXTT4=
EXTT5=
EXTT6=
EXTT7=
PLAYORDER=
